<?xml version="1.0" standalone="no"?>
<!DOCTYPE svg PUBLIC "-//W3C//DTD SVG 20010904//EN"
 "http://www.w3.org/TR/2001/REC-SVG-20010904/DTD/svg10.dtd">
<svg version="1.0" xmlns="http://www.w3.org/2000/svg"
 width="1654.000000pt" height="931.000000pt" viewBox="0 0 1654.000000 931.000000"
 preserveAspectRatio="xMidYMid meet">
<metadata>
Created by potrace 1.16, written by Peter Selinger 2001-2019
</metadata>
<g transform="translate(0.000000,931.000000) scale(0.100000,-0.100000)"
fill="#000000" stroke="none">
<path d="M12050 5725 c0 -42 -2 -45 -19 -35 -31 16 -69 12 -91 -10 -25 -25
-28 -124 -4 -158 17 -25 81 -31 102 -10 9 9 12 9 12 0 0 -7 7 -12 15 -12 13 0
15 22 15 135 0 113 -2 135 -15 135 -11 0 -15 -12 -15 -45z m-20 -65 c39 -39
17 -140 -30 -140 -26 0 -50 38 -50 80 0 39 23 80 46 80 8 0 23 -9 34 -20z"/>
<path d="M11532 5684 c-27 -19 -28 -34 -2 -34 11 0 20 4 20 9 0 16 38 23 60
11 11 -6 20 -20 20 -30 0 -16 -7 -20 -36 -20 -36 0 -73 -15 -86 -34 -13 -19
-9 -54 8 -70 20 -20 78 -21 94 -1 12 14 15 14 30 0 16 -14 50 -21 50 -9 0 3
-7 12 -15 20 -10 11 -15 36 -15 78 0 48 -4 67 -18 79 -23 21 -81 22 -110 1z
m98 -104 c0 -52 -81 -81 -88 -31 -5 30 20 51 60 51 21 0 28 -5 28 -20z"/>
<path d="M11720 5600 c0 -82 3 -100 15 -100 12 0 15 14 15 70 0 57 4 74 20 90
46 46 70 18 70 -82 0 -71 2 -78 20 -78 18 0 20 7 20 73 0 91 -14 121 -59 125
-21 2 -40 -3 -52 -14 -17 -16 -19 -16 -19 -1 0 10 -7 17 -15 17 -12 0 -15 -18
-15 -100z"/>
<path d="M12153 5678 c-28 -31 -36 -71 -23 -118 12 -46 33 -60 88 -60 35 0 72
22 72 43 0 13 -27 7 -40 -8 -26 -32 -90 -5 -90 38 0 14 11 17 70 17 64 0 70 2
70 20 0 29 -26 76 -45 84 -36 13 -82 6 -102 -16z m91 -14 c31 -30 20 -44 -34
-44 -56 0 -67 17 -28 44 28 20 43 20 62 0z"/>
<path d="M12340 5600 c0 -82 3 -100 15 -100 11 0 15 13 15 54 0 67 14 106 40
113 21 6 28 33 8 33 -6 0 -20 -7 -30 -17 -17 -15 -18 -15 -18 0 0 10 -7 17
-15 17 -12 0 -15 -18 -15 -100z"/>
<path d="M12485 5675 c-20 -19 -25 -34 -25 -73 0 -68 27 -102 81 -102 47 0 79
14 79 35 0 19 -17 19 -36 0 -22 -22 -60 -18 -78 7 -29 41 -21 48 54 48 l70 0
0 30 c0 44 -39 80 -85 80 -25 0 -44 -8 -60 -25z m95 -15 c32 -32 24 -40 -35
-40 -30 0 -55 5 -55 10 0 15 38 50 55 50 8 0 24 -9 35 -20z"/>
<path d="M6230 5455 c0 -113 2 -135 15 -135 11 0 15 11 15 39 0 54 19 56 58 4
18 -24 39 -43 47 -43 21 0 19 6 -20 57 -19 25 -35 51 -35 57 0 5 17 27 37 48
30 31 34 38 18 38 -10 0 -38 -21 -62 -47 l-42 -48 -1 83 c0 66 -3 82 -15 82
-13 0 -15 -22 -15 -135z"/>
<path d="M7450 5546 l0 -44 -28 10 c-42 16 -77 3 -92 -32 -15 -35 -9 -122 10
-145 15 -18 81 -20 98 -3 9 9 12 9 12 0 0 -7 9 -12 20 -12 19 0 20 7 20 135 0
128 -1 135 -20 135 -17 0 -20 -7 -20 -44z m-18 -63 c26 -23 25 -104 -1 -127
-41 -37 -86 7 -77 77 7 64 40 85 78 50z"/>
<path d="M7540 5575 c0 -8 7 -15 15 -15 8 0 15 7 15 15 0 8 -7 15 -15 15 -8 0
-15 -7 -15 -15z"/>
<path d="M7620 5455 c0 -113 2 -135 15 -135 10 0 15 10 15 34 0 58 22 62 59
11 19 -27 40 -45 52 -45 17 0 14 8 -22 55 l-41 54 37 46 c49 59 24 58 -37 -2
l-48 -47 0 82 c0 66 -3 82 -15 82 -13 0 -15 -22 -15 -135z"/>
<path d="M5861 5558 c-5 -13 -28 -68 -50 -122 -46 -112 -48 -119 -24 -114 9 2
22 19 28 38 11 34 13 35 69 38 l57 3 17 -40 c11 -27 23 -41 36 -41 10 0 16 5
13 13 -87 219 -100 247 -118 247 -11 0 -24 -10 -28 -22z m44 -55 c33 -80 33
-83 -20 -83 -26 0 -45 4 -43 8 2 4 12 31 22 60 11 29 21 52 23 52 1 0 10 -17
18 -37z"/>
<path d="M8023 5540 c-3 -11 -12 -20 -19 -20 -18 0 -18 -17 1 -27 10 -6 15
-31 17 -88 l3 -80 33 -3 c35 -4 44 12 12 21 -18 4 -20 14 -20 75 0 62 2 70 21
75 23 6 17 27 -7 27 -8 0 -14 9 -14 20 0 11 -5 20 -11 20 -6 0 -13 -9 -16 -20z"/>
<path d="M1912 5518 c-7 -7 -12 -22 -12 -35 0 -14 -6 -23 -15 -23 -8 0 -15 -5
-15 -10 0 -6 7 -13 15 -16 12 -5 15 -25 15 -90 0 -68 3 -84 15 -84 12 0 15 16
15 85 0 78 2 85 20 85 11 0 20 7 20 15 0 8 -9 15 -20 15 -11 0 -20 6 -20 14 0
17 24 38 33 29 4 -3 7 1 7 10 0 20 -40 23 -58 5z"/>
<path d="M2730 5515 c0 -8 7 -15 15 -15 8 0 15 7 15 15 0 8 -7 15 -15 15 -8 0
-15 -7 -15 -15z"/>
<path d="M1420 5391 c0 -124 1 -131 20 -131 18 0 20 7 20 60 l0 61 68 -3 67
-3 3 -57 c2 -43 7 -58 17 -58 12 0 15 23 15 130 0 109 -2 130 -15 130 -12 0
-15 -13 -15 -55 l0 -55 -69 0 -70 0 -3 52 c-2 41 -7 54 -20 56 -16 3 -18 -8
-18 -127z"/>
<path d="M6055 5495 c-20 -19 -25 -34 -25 -73 0 -68 27 -102 81 -102 38 0 79
26 79 50 0 17 -25 11 -43 -10 -20 -24 -36 -25 -63 -6 -14 11 -19 26 -19 66 0
40 5 55 19 66 26 18 32 18 56 -6 20 -20 50 -27 50 -12 0 5 -10 18 -23 30 -32
30 -81 29 -112 -3z"/>
<path d="M6433 5498 c-28 -31 -36 -71 -23 -118 12 -46 33 -60 88 -60 35 0 72
22 72 43 0 13 -27 7 -40 -8 -26 -32 -90 -5 -90 38 0 14 11 17 70 17 64 0 70 2
70 20 0 29 -26 76 -45 84 -36 13 -82 6 -102 -16z m91 -14 c31 -30 20 -44 -34
-44 -56 0 -67 17 -28 44 28 20 43 20 62 0z"/>
<path d="M6620 5420 c0 -93 1 -100 20 -100 18 0 20 7 20 73 0 75 9 97 42 97
10 0 18 7 18 15 0 20 -29 19 -52 -2 -17 -15 -18 -15 -18 0 0 10 -7 17 -15 17
-12 0 -15 -18 -15 -100z"/>
<path d="M6757 5502 c-20 -22 -22 -57 -5 -69 7 -4 33 -15 58 -24 32 -11 46
-22 48 -37 5 -31 -41 -40 -85 -17 -39 21 -54 14 -28 -15 13 -14 31 -20 62 -20
59 0 83 14 83 49 0 32 -23 55 -65 65 -56 14 -70 38 -33 57 17 9 28 8 55 -6 40
-22 57 -11 24 16 -30 25 -92 25 -114 1z"/>
<path d="M6930 5470 c66 -165 62 -150 45 -176 -8 -13 -25 -24 -36 -24 -24 0
-21 -23 4 -28 30 -6 63 42 106 152 46 119 47 126 27 126 -9 0 -25 -31 -42 -82
l-27 -81 -31 81 c-22 60 -35 82 -48 82 -17 0 -16 -3 2 -50z"/>
<path d="M7120 5420 c0 -79 3 -100 14 -100 10 0 15 20 18 76 3 60 7 79 23 90
22 16 34 17 55 4 11 -6 16 -32 18 -90 3 -60 8 -80 18 -80 21 0 20 148 -2 178
-18 27 -69 30 -96 5 -17 -15 -18 -15 -18 0 0 10 -7 17 -15 17 -12 0 -15 -18
-15 -100z"/>
<path d="M7540 5420 c0 -82 3 -100 15 -100 12 0 15 18 15 100 0 82 -3 100 -15
100 -12 0 -15 -18 -15 -100z"/>
<path d="M7826 5504 c-32 -32 -9 -47 28 -19 33 25 58 16 70 -22 7 -21 4 -23
-36 -23 -58 0 -88 -22 -88 -64 0 -17 5 -37 12 -44 17 -17 69 -15 95 3 19 13
22 13 27 0 3 -8 17 -15 31 -15 27 0 34 14 10 24 -11 4 -15 22 -15 71 0 52 -4
69 -20 85 -25 25 -91 27 -114 4z m100 -95 c8 -14 -28 -63 -50 -67 -22 -5 -46
16 -46 40 0 30 80 52 96 27z"/>
<path d="M1705 5435 c-20 -19 -25 -34 -25 -73 0 -70 27 -102 85 -102 58 0 85
32 85 102 0 62 -31 98 -85 98 -25 0 -44 -8 -60 -25z m91 -9 c14 -11 19 -26 19
-64 0 -55 -16 -82 -51 -82 -50 0 -75 99 -34 140 24 24 39 25 66 6z"/>
<path d="M1980 5453 c0 -5 14 -50 32 -100 27 -79 36 -93 54 -93 12 0 24 8 27
18 2 9 19 54 36 100 27 73 29 82 13 82 -13 0 -25 -22 -47 -85 l-30 -85 -28 85
c-18 53 -34 85 -43 85 -8 0 -14 -3 -14 -7z"/>
<path d="M2205 5435 c-20 -19 -25 -34 -25 -75 0 -66 30 -100 87 -100 44 0 90
27 75 42 -7 7 -18 5 -33 -6 -40 -28 -80 -15 -94 32 -6 21 -4 22 64 22 l71 0 0
29 c0 15 -9 40 -21 55 -28 36 -89 37 -124 1z m95 -15 c31 -31 24 -40 -35 -40
-47 0 -54 2 -48 18 7 21 32 42 50 42 7 0 22 -9 33 -20z"/>
<path d="M2390 5360 c0 -93 1 -100 20 -100 18 0 20 7 20 73 0 75 9 97 42 97
10 0 18 7 18 15 0 20 -29 19 -52 -2 -17 -15 -18 -15 -18 0 0 10 -7 17 -15 17
-12 0 -15 -18 -15 -100z"/>
<path d="M2535 5435 c-20 -19 -25 -34 -25 -75 0 -66 30 -100 87 -100 44 0 90
27 75 42 -7 7 -18 5 -33 -6 -40 -28 -80 -15 -94 32 -6 21 -4 22 64 22 l71 0 0
29 c0 15 -9 40 -21 55 -28 36 -89 37 -124 1z m95 -15 c31 -31 24 -40 -35 -40
-47 0 -54 2 -48 18 7 21 32 42 50 42 7 0 22 -9 33 -20z"/>
<path d="M2730 5360 c0 -82 3 -100 15 -100 12 0 15 18 15 100 0 82 -3 100 -15
100 -12 0 -15 -18 -15 -100z"/>
<path d="M2810 5360 c0 -82 3 -100 15 -100 12 0 15 14 15 70 0 57 4 74 20 90
46 46 70 18 70 -82 0 -71 2 -78 20 -78 18 0 20 7 20 73 0 91 -14 121 -59 125
-21 2 -40 -3 -52 -14 -17 -16 -19 -16 -19 -1 0 10 -7 17 -15 17 -12 0 -15 -18
-15 -100z"/>
<path d="M11760 5335 c0 -8 7 -15 15 -15 8 0 15 7 15 15 0 8 -7 15 -15 15 -8
0 -15 -7 -15 -15z"/>
<path d="M12050 5215 c0 -113 2 -135 15 -135 10 0 15 10 15 34 0 58 22 62 59
11 19 -27 40 -45 52 -45 17 0 14 8 -22 55 l-41 54 37 46 c49 59 24 58 -37 -2
l-48 -47 0 82 c0 66 -3 82 -15 82 -13 0 -15 -22 -15 -135z"/>
<path d="M11180 5211 c0 -124 1 -131 20 -131 17 0 20 7 20 49 l0 49 61 4 c49
4 66 9 80 27 24 30 24 72 0 102 -17 21 -30 24 -100 27 l-81 4 0 -131z m148 87
c7 -7 12 -24 12 -38 0 -38 -18 -50 -72 -50 l-48 0 0 50 0 50 48 0 c26 0 53 -5
60 -12z"/>
<path d="M12815 5326 c-14 -10 -19 -25 -18 -57 2 -34 -3 -47 -22 -65 -31 -29
-34 -83 -6 -109 16 -13 30 -16 68 -11 62 7 61 7 106 0 45 -7 51 11 7 21 -34 7
-35 10 -15 45 8 14 14 33 15 43 0 29 -19 19 -35 -20 l-15 -36 -25 33 c-14 19
-25 37 -25 40 0 3 13 14 30 23 16 10 33 29 36 43 13 50 -55 84 -101 50z m59
-12 c24 -9 19 -42 -10 -60 -22 -15 -27 -15 -35 -3 -12 20 -11 43 3 57 14 14
20 14 42 6z m-30 -148 c14 -19 26 -39 26 -45 0 -15 -50 -26 -69 -14 -20 13
-26 60 -10 79 17 20 24 18 53 -20z"/>
<path d="M12245 5300 c-3 -11 -11 -20 -16 -20 -5 0 -9 -7 -9 -15 0 -8 4 -15
10 -15 5 0 10 -37 12 -82 l3 -83 33 -3 c35 -4 44 12 12 21 -18 4 -20 14 -20
75 0 61 2 70 20 75 11 3 20 10 20 16 0 6 -9 11 -20 11 -13 0 -20 7 -20 20 0
11 -4 20 -9 20 -5 0 -13 -9 -16 -20z"/>
<path d="M11430 5180 c0 -82 3 -100 15 -100 12 0 15 14 15 66 0 74 12 104 40
104 11 0 20 7 20 15 0 17 -31 20 -47 4 -8 -8 -13 -8 -17 0 -18 29 -26 3 -26
-89z"/>
<path d="M11570 5260 c-39 -39 -39 -130 1 -162 23 -20 80 -24 109 -8 43 23 49
131 9 171 -26 26 -92 26 -119 -1z m94 -16 c10 -10 16 -33 16 -64 0 -52 -18
-80 -50 -80 -32 0 -50 28 -50 80 0 52 18 80 50 80 10 0 26 -7 34 -16z"/>
<path d="M11760 5159 c0 -112 -1 -121 -20 -126 -11 -3 -20 -9 -20 -14 0 -16
27 -21 49 -9 20 10 21 19 21 140 0 109 -2 130 -15 130 -13 0 -15 -20 -15 -121z"/>
<path d="M11872 5273 c-19 -7 -42 -58 -42 -93 0 -37 23 -85 45 -94 35 -13 92
-6 110 14 25 28 11 38 -24 17 -16 -9 -36 -17 -44 -17 -22 0 -47 28 -47 51 0
17 8 19 71 19 69 0 71 1 65 23 -3 12 -6 27 -6 34 0 25 -43 53 -79 52 -20 0
-42 -3 -49 -6z m80 -30 c33 -29 22 -43 -32 -43 -54 0 -65 14 -34 44 20 21 43
20 66 -1z"/>
<path d="M12372 5273 c-19 -7 -42 -58 -42 -93 0 -37 23 -85 45 -94 35 -13 92
-6 110 14 25 28 11 38 -24 17 -16 -9 -36 -17 -44 -17 -22 0 -47 28 -47 51 0
17 8 19 71 19 69 0 71 1 65 23 -3 12 -6 27 -6 34 0 25 -43 53 -79 52 -20 0
-42 -3 -49 -6z m80 -30 c33 -29 22 -43 -32 -43 -54 0 -65 14 -34 44 20 21 43
20 66 -1z"/>
<path d="M6930 5155 c0 -3 23 -62 51 -130 39 -93 56 -125 69 -125 13 0 31 32
70 126 28 69 49 128 46 131 -16 16 -37 -16 -71 -106 -21 -56 -41 -101 -44
-101 -3 0 -24 46 -46 103 -27 67 -47 103 -58 105 -9 2 -17 1 -17 -3z"/>
<path d="M2190 5095 c0 -3 23 -62 51 -130 39 -93 56 -125 69 -125 13 0 31 32
70 126 28 69 49 128 46 131 -16 16 -37 -16 -71 -106 -21 -56 -41 -101 -44
-101 -3 0 -24 46 -46 103 -27 67 -47 103 -58 105 -9 2 -17 1 -17 -3z"/>
<path d="M6655 5075 c-20 -19 -25 -34 -25 -75 0 -66 30 -100 87 -100 44 0 90
27 75 42 -7 7 -18 5 -33 -6 -40 -28 -80 -15 -94 32 -6 21 -4 22 64 22 l71 0 0
29 c0 15 -9 40 -21 55 -28 36 -89 37 -124 1z m95 -15 c31 -31 24 -40 -35 -40
-47 0 -54 2 -48 18 7 21 32 42 50 42 7 0 22 -9 33 -20z"/>
<path d="M1932 5033 c-19 -7 -42 -58 -42 -93 0 -37 23 -85 45 -94 35 -13 92
-6 110 14 25 28 11 38 -24 17 -16 -9 -36 -17 -44 -17 -22 0 -47 28 -47 51 0
17 8 19 71 19 69 0 71 1 65 23 -3 12 -6 27 -6 34 0 25 -43 53 -79 52 -20 0
-42 -3 -49 -6z m80 -30 c33 -29 22 -43 -32 -43 -54 0 -65 14 -34 44 20 21 43
20 66 -1z"/>
<path d="M6850 4920 c0 -13 7 -20 20 -20 13 0 20 7 20 20 0 13 -7 20 -20 20
-13 0 -20 -7 -20 -20z"/>
<path d="M7170 4920 c0 -13 7 -20 20 -20 13 0 20 7 20 20 0 13 -7 20 -20 20
-13 0 -20 -7 -20 -20z"/>
<path d="M12060 4875 c0 -42 -2 -45 -19 -35 -31 16 -69 12 -91 -10 -25 -25
-28 -124 -4 -158 17 -25 81 -31 102 -10 9 9 12 9 12 0 0 -7 7 -12 15 -12 13 0
15 22 15 135 0 113 -2 135 -15 135 -11 0 -15 -12 -15 -45z m-20 -65 c39 -39
17 -140 -30 -140 -26 0 -50 38 -50 80 0 39 23 80 46 80 8 0 23 -9 34 -20z"/>
<path d="M11380 4780 c0 -109 2 -130 15 -130 11 0 15 12 15 50 l0 49 72 3
c100 4 105 26 6 30 l-73 3 -3 48 -3 47 75 0 c61 0 76 3 76 15 0 12 -17 15 -90
15 l-90 0 0 -130z"/>
<path d="M11630 4890 c0 -11 7 -20 15 -20 8 0 15 9 15 20 0 11 -7 20 -15 20
-8 0 -15 -9 -15 -20z"/>
<path d="M11705 4900 c-7 -12 2 -30 16 -30 5 0 9 9 9 20 0 21 -15 27 -25 10z"/>
<path d="M2110 4860 c0 -13 7 -20 20 -20 13 0 20 7 20 20 0 13 -7 20 -20 20
-13 0 -20 -7 -20 -20z"/>
<path d="M2430 4860 c0 -13 7 -20 20 -20 13 0 20 7 20 20 0 13 -7 20 -20 20
-13 0 -20 -7 -20 -20z"/>
<path d="M11623 4831 c-41 -39 -37 -148 7 -171 30 -16 86 -12 111 9 21 16 24
28 24 81 0 53 -3 65 -24 81 -31 25 -91 25 -118 0z m91 -14 c14 -10 18 -27 18
-67 0 -40 -4 -57 -18 -67 -45 -33 -84 -1 -84 68 0 38 5 51 22 63 27 19 39 20
62 3z"/>
<path d="M11810 4750 c0 -82 3 -100 15 -100 11 0 15 13 15 54 0 67 14 106 40
113 21 6 28 33 8 33 -6 0 -20 -7 -30 -17 -17 -15 -18 -15 -18 0 0 10 -7 17
-15 17 -12 0 -15 -18 -15 -100z"/>
<path d="M12163 4828 c-28 -31 -36 -71 -23 -118 12 -46 33 -60 88 -60 35 0 72
22 72 43 0 13 -27 7 -40 -8 -26 -32 -90 -5 -90 38 0 14 11 17 70 17 64 0 70 2
70 20 0 29 -26 76 -45 84 -36 13 -82 6 -102 -16z m91 -14 c31 -30 20 -44 -34
-44 -56 0 -67 17 -28 44 28 20 43 20 62 0z"/>
<path d="M12350 4750 c0 -82 3 -100 15 -100 11 0 15 13 15 54 0 67 14 106 40
113 21 6 28 33 8 33 -6 0 -20 -7 -30 -17 -17 -15 -18 -15 -18 0 0 10 -7 17
-15 17 -12 0 -15 -18 -15 -100z"/>
<path d="M12495 4825 c-20 -19 -25 -34 -25 -73 0 -68 27 -102 81 -102 47 0 79
14 79 35 0 19 -17 19 -36 0 -22 -22 -60 -18 -78 7 -29 41 -21 48 54 48 l70 0
0 30 c0 71 -94 107 -145 55z m95 -15 c32 -32 24 -40 -35 -40 -30 0 -55 5 -55
10 0 15 38 50 55 50 8 0 24 -9 35 -20z"/>
<path d="M12680 4750 c0 -93 1 -100 20 -100 18 0 20 7 20 73 0 75 9 97 42 97
10 0 18 7 18 15 0 20 -29 19 -52 -2 -17 -15 -18 -15 -18 0 0 10 -7 17 -15 17
-12 0 -15 -18 -15 -100z"/>
<path d="M3326 4638 c-10 -38 -7 -48 13 -48 10 0 35 -7 56 -16 41 -17 47 -15
49 18 2 29 -10 41 -53 56 -48 17 -58 15 -65 -10z"/>
<path d="M3512 4569 c-17 -26 -11 -32 52 -52 56 -19 66 -16 63 20 -2 20 -10
29 -37 39 -50 18 -63 17 -78 -7z"/>
<path d="M3692 4509 c-17 -26 -14 -29 53 -50 59 -18 63 -17 61 20 -1 18 -10
27 -36 37 -50 18 -63 17 -78 -7z"/>
<path d="M3886 4463 c-12 -30 -5 -40 43 -55 44 -14 50 -14 55 -1 12 30 5 40
-43 55 -44 14 -50 14 -55 1z"/>
<path d="M2185 4404 c-13 -20 -14 -28 -4 -40 6 -8 14 -12 17 -9 3 3 20 -6 38
-20 l32 -25 17 26 c9 14 15 27 13 29 -16 17 -82 65 -88 65 -4 0 -15 -12 -25
-26z"/>
<path d="M4066 4403 c-12 -30 -5 -39 40 -51 50 -13 64 -10 64 17 0 24 -96 56
-104 34z"/>
<path d="M4247 4339 c-8 -31 -4 -34 48 -49 50 -14 50 -14 59 16 5 18 0 23 -35
33 -23 7 -47 15 -54 17 -7 3 -15 -5 -18 -17z"/>
<path d="M2346 4281 c-15 -16 -13 -20 25 -50 39 -32 41 -32 60 -15 19 18 19
18 -8 41 -49 41 -59 44 -77 24z"/>
<path d="M4430 4292 c0 -6 -3 -17 -6 -25 -4 -11 9 -20 46 -32 56 -19 55 -19
64 11 5 18 0 23 -35 33 -23 7 -47 15 -55 18 -8 3 -14 1 -14 -5z"/>
<path d="M4613 4223 c-3 -10 -8 -21 -10 -25 -2 -3 20 -14 48 -23 43 -15 53
-15 60 -4 17 26 9 37 -38 53 -57 20 -52 20 -60 -1z"/>
<path d="M2497 4162 c-16 -18 -15 -20 27 -50 42 -30 44 -31 60 -13 16 18 15
20 -22 50 -22 17 -42 31 -44 31 -3 0 -12 -8 -21 -18z"/>
<path d="M4791 4158 c-8 -21 -4 -25 42 -41 40 -13 52 -14 59 -5 16 25 7 36
-39 52 -57 20 -52 20 -62 -6z"/>
<path d="M4976 4104 c-11 -27 -7 -32 40 -48 51 -17 59 -16 67 13 4 16 -4 23
-41 35 -56 20 -58 20 -66 0z"/>
<path d="M2649 4048 c-11 -20 -8 -25 27 -55 39 -32 39 -32 58 -13 11 11 18 21
15 23 -2 2 -23 18 -46 35 l-42 33 -12 -23z"/>
<path d="M5155 4040 c-8 -26 -11 -23 48 -43 47 -16 48 -16 56 6 7 18 4 24 -19
34 -58 25 -78 26 -85 3z"/>
<path d="M5636 3994 c-10 -35 -22 -66 -26 -69 -4 -2 -23 1 -43 7 -41 12 -44
12 -49 -16 -2 -14 6 -22 31 -31 19 -6 36 -16 38 -22 2 -5 -7 -40 -20 -77 l-25
-66 142 0 c77 0 205 3 283 7 116 5 141 9 132 19 -6 7 -21 16 -32 20 -17 5
-184 124 -402 285 -7 5 -18 -16 -29 -57z"/>
<path d="M5337 3979 c-3 -13 -5 -24 -4 -25 6 -4 101 -34 102 -31 2 1 6 12 9
24 6 19 2 25 -21 34 -61 23 -80 23 -86 -2z"/>
<path d="M2935 3868 c-42 -57 -91 -115 -108 -130 -19 -18 -28 -31 -22 -37 9
-8 518 -191 532 -191 7 0 -26 51 -46 71 -9 9 -72 100 -141 202 -69 102 -128
186 -131 187 -3 0 -41 -46 -84 -102z"/>
<path d="M2800 3929 c-10 -18 -7 -25 22 -50 38 -33 51 -35 69 -13 11 13 8 19
-17 40 -52 43 -62 47 -74 23z"/>
<path d="M12770 3805 c0 -8 9 -15 20 -15 11 0 20 7 20 15 0 8 -9 15 -20 15
-11 0 -20 -7 -20 -15z"/>
<path d="M13170 3685 c0 -113 2 -135 15 -135 13 0 15 22 15 135 0 113 -2 135
-15 135 -13 0 -15 -22 -15 -135z"/>
<path d="M13250 3805 c0 -8 7 -15 15 -15 8 0 15 7 15 15 0 8 -7 15 -15 15 -8
0 -15 -7 -15 -15z"/>
<path d="M13670 3775 c0 -42 -11 -58 -25 -35 -10 17 -71 11 -88 -8 -34 -37
-34 -134 -1 -167 19 -18 75 -20 93 -2 11 10 14 10 18 0 3 -7 11 -13 19 -13 11
0 14 25 14 135 0 113 -2 135 -15 135 -11 0 -15 -12 -15 -45z m-32 -53 c40 -26
30 -137 -14 -148 -39 -10 -54 11 -54 77 0 45 4 60 18 68 21 13 33 13 50 3z"/>
<path d="M11970 3680 c0 -109 2 -130 15 -130 13 0 15 21 15 130 0 109 -2 130
-15 130 -13 0 -15 -21 -15 -130z"/>
<path d="M12470 3681 c0 -110 2 -131 15 -131 12 0 15 18 15 103 l1 102 38
-100 c21 -55 44 -101 52 -103 9 -1 27 32 54 105 l40 108 3 -107 c2 -87 6 -108
17 -108 12 0 15 22 15 130 l0 130 -24 0 c-21 0 -28 -12 -62 -104 -22 -58 -41
-103 -43 -100 -2 2 -21 48 -41 101 -29 79 -41 99 -58 101 -22 3 -22 1 -22
-127z"/>
<path d="M12260 3770 c0 -11 -7 -20 -15 -20 -8 0 -15 -7 -15 -15 0 -8 5 -15
10 -15 6 0 10 -29 10 -66 0 -81 11 -104 50 -104 34 0 40 15 10 23 -18 5 -20
14 -20 76 0 56 3 71 15 71 8 0 15 7 15 15 0 8 -7 15 -15 15 -8 0 -15 9 -15 20
0 11 -7 20 -15 20 -8 0 -15 -9 -15 -20z"/>
<path d="M12865 3770 c-3 -11 -11 -20 -16 -20 -5 0 -9 -7 -9 -15 0 -8 4 -15
10 -15 5 0 10 -37 12 -82 l3 -83 33 -3 c35 -4 44 12 12 21 -18 4 -20 14 -20
75 0 61 2 70 20 75 11 3 20 10 20 16 0 6 -9 11 -20 11 -13 0 -20 7 -20 20 0
11 -4 20 -9 20 -5 0 -13 -9 -16 -20z"/>
<path d="M12078 3739 c-11 -6 -18 -22 -18 -39 0 -33 25 -54 78 -65 38 -8 50
-28 32 -50 -16 -19 -64 -19 -80 0 -13 16 -40 20 -40 7 0 -40 112 -58 143 -24
37 41 15 76 -65 102 -27 8 -38 17 -38 31 0 27 44 35 76 14 35 -23 53 -14 26
13 -24 24 -83 30 -114 11z"/>
<path d="M12770 3651 c0 -95 1 -101 20 -101 20 0 21 5 18 97 -3 84 -6 98 -20
101 -16 3 -18 -7 -18 -97z"/>
<path d="M12976 3731 c-20 -22 -32 -87 -22 -125 13 -54 68 -73 115 -40 23 17
23 17 16 -17 -4 -19 -13 -37 -19 -41 -16 -11 -50 -10 -63 3 -6 6 -18 9 -27 7
-15 -3 -15 -5 -2 -23 19 -27 97 -28 123 -2 26 25 34 257 9 257 -9 0 -16 -7
-16 -16 0 -14 -2 -14 -22 0 -30 22 -71 20 -92 -3z m84 -19 c31 -25 32 -95 2
-125 -18 -18 -25 -19 -47 -9 -25 12 -29 27 -25 97 1 27 22 55 41 55 4 0 17 -8
29 -18z"/>
<path d="M13250 3650 c0 -82 3 -100 15 -100 12 0 15 18 15 100 0 82 -3 100
-15 100 -12 0 -15 -18 -15 -100z"/>
<path d="M13362 3743 c-19 -7 -42 -58 -42 -93 0 -37 23 -85 45 -94 35 -13 92
-6 110 14 25 28 11 38 -24 17 -16 -9 -36 -17 -44 -17 -22 0 -47 28 -47 51 0
17 8 19 71 19 69 0 71 1 65 23 -3 12 -6 27 -6 34 0 25 -43 53 -79 52 -20 0
-42 -3 -49 -6z m80 -30 c33 -29 22 -43 -32 -43 -54 0 -65 14 -34 44 20 21 43
20 66 -1z"/>
<path d="M2200 3485 c0 -42 -11 -58 -25 -35 -10 17 -71 11 -88 -8 -34 -37 -34
-134 -1 -167 19 -18 75 -20 93 -2 11 10 14 10 18 0 3 -7 11 -13 19 -13 11 0
14 25 14 135 0 113 -2 135 -15 135 -11 0 -15 -12 -15 -45z m-32 -53 c40 -26
30 -137 -14 -148 -39 -10 -54 11 -54 77 0 45 4 60 18 68 21 13 33 13 50 3z"/>
<path d="M2550 3515 c0 -8 7 -15 15 -15 8 0 15 7 15 15 0 8 -7 15 -15 15 -8 0
-15 -7 -15 -15z"/>
<path d="M1450 3390 l0 -130 85 0 c69 0 85 3 85 15 0 12 -14 15 -65 15 l-65 0
0 115 c0 108 -1 115 -20 115 -19 0 -20 -7 -20 -130z"/>
<path d="M5670 3385 c0 -128 1 -135 20 -135 19 0 20 7 20 135 0 128 -1 135
-20 135 -19 0 -20 -7 -20 -135z"/>
<path d="M6510 3475 c0 -42 -11 -58 -25 -35 -10 17 -71 11 -88 -8 -34 -37 -34
-134 -1 -167 19 -18 75 -20 93 -2 11 10 14 10 18 0 3 -7 11 -13 19 -13 11 0
14 25 14 135 0 113 -2 135 -15 135 -11 0 -15 -12 -15 -45z m-32 -53 c40 -26
30 -137 -14 -148 -39 -10 -54 11 -54 77 0 45 4 60 18 68 21 13 33 13 50 3z"/>
<path d="M5140 3380 l0 -130 100 0 c82 0 100 3 100 15 0 12 -16 15 -85 15
l-85 0 0 45 0 45 75 0 c60 0 75 3 75 15 0 12 -15 15 -75 15 l-75 0 0 40 0 40
80 0 c64 0 80 3 80 15 0 12 -17 15 -95 15 l-95 0 0 -130z"/>
<path d="M2763 3480 c-3 -11 -12 -20 -19 -20 -18 0 -18 -17 1 -27 10 -6 15
-31 17 -88 l3 -80 33 -3 c35 -4 44 12 12 21 -18 4 -20 14 -20 75 0 62 2 70 21
75 23 6 17 27 -7 27 -8 0 -14 9 -14 20 0 11 -5 20 -11 20 -6 0 -13 -9 -16 -20z"/>
<path d="M5580 3475 c0 -9 -7 -18 -15 -21 -17 -7 -21 -34 -5 -34 6 0 10 -30
10 -69 0 -88 5 -101 41 -101 34 0 37 10 9 28 -17 10 -20 23 -20 77 0 58 2 65
20 65 11 0 20 7 20 15 0 8 -9 15 -20 15 -13 0 -20 7 -20 20 0 11 -4 20 -10 20
-5 0 -10 -7 -10 -15z"/>
<path d="M1668 3438 c-21 -21 -21 -23 -5 -26 10 -2 26 3 36 12 31 28 71 13 71
-26 0 -14 -8 -18 -40 -18 -30 0 -47 -7 -65 -25 -29 -28 -31 -42 -9 -73 19 -27
75 -30 99 -5 16 16 18 16 27 0 10 -18 58 -24 58 -7 0 6 -6 10 -14 10 -10 0
-15 20 -18 76 -3 60 -7 79 -23 90 -30 22 -91 18 -117 -8z m102 -103 c0 -28
-39 -59 -67 -53 -25 5 -30 48 -7 65 10 7 30 13 46 13 23 0 28 -4 28 -25z"/>
<path d="M1860 3360 c0 -79 3 -100 14 -100 10 0 15 20 18 76 3 60 7 79 23 90
22 16 34 17 55 4 11 -6 16 -32 18 -90 3 -60 8 -80 18 -80 21 0 20 148 -2 178
-18 27 -69 30 -96 5 -17 -15 -18 -15 -18 0 0 10 -7 17 -15 17 -12 0 -15 -18
-15 -100z"/>
<path d="M2252 3449 c3 -8 16 -54 29 -102 20 -75 27 -87 43 -85 16 2 24 19 40
83 11 44 22 73 24 65 3 -8 13 -44 22 -80 13 -51 21 -66 36 -68 21 -3 19 -7 71
181 4 11 0 17 -10 17 -10 0 -20 -15 -27 -40 -37 -143 -32 -140 -60 -30 -13 51
-20 65 -35 65 -15 0 -23 -15 -39 -80 -11 -44 -22 -73 -24 -65 -3 8 -13 44 -22
80 -12 47 -21 66 -35 68 -12 3 -16 -1 -13 -9z"/>
<path d="M2550 3360 c0 -82 3 -100 15 -100 12 0 15 18 15 100 0 82 -3 100 -15
100 -12 0 -15 -18 -15 -100z"/>
<path d="M2630 3360 c0 -82 3 -100 15 -100 12 0 15 14 15 66 0 74 12 104 40
104 11 0 20 7 20 15 0 21 -37 19 -49 -2 -10 -17 -10 -17 -11 0 0 9 -7 17 -15
17 -12 0 -15 -18 -15 -100z"/>
<path d="M5360 3443 c0 -4 15 -48 33 -98 26 -68 39 -91 54 -93 17 -3 26 12 57
94 20 53 34 99 32 102 -15 14 -37 -15 -56 -75 -13 -37 -25 -72 -28 -77 -3 -6
-18 26 -32 70 -18 52 -32 80 -43 82 -10 2 -17 0 -17 -5z"/>
<path d="M5978 3428 c-21 -21 -21 -23 -5 -26 10 -2 26 3 36 12 31 28 71 13 71
-26 0 -14 -8 -18 -40 -18 -30 0 -47 -7 -65 -25 -29 -28 -31 -42 -9 -73 19 -27
75 -30 99 -5 16 16 18 16 27 0 10 -18 58 -24 58 -7 0 6 -6 10 -14 10 -10 0
-15 20 -18 76 -3 60 -7 79 -23 90 -30 22 -91 18 -117 -8z m102 -103 c0 -28
-39 -59 -67 -53 -25 5 -30 48 -7 65 10 7 30 13 46 13 23 0 28 -4 28 -25z"/>
<path d="M6170 3350 c0 -79 3 -100 14 -100 10 0 15 20 18 76 3 60 7 79 23 90
22 16 34 17 55 4 11 -6 16 -32 18 -90 3 -60 8 -80 18 -80 21 0 20 148 -2 178
-18 27 -69 30 -96 5 -17 -15 -18 -15 -18 0 0 10 -7 17 -15 17 -12 0 -15 -18
-15 -100z"/>
<path d="M6605 3425 c-20 -19 -25 -34 -25 -73 0 -68 27 -102 81 -102 47 0 79
14 79 35 0 19 -17 19 -36 0 -22 -22 -60 -18 -78 7 -29 41 -21 48 54 48 l70 0
0 30 c0 71 -94 107 -145 55z m95 -15 c32 -32 24 -40 -35 -40 -30 0 -55 5 -55
10 0 15 38 50 55 50 8 0 24 -9 35 -20z"/>
<path d="M6800 3350 c0 -82 3 -100 15 -100 12 0 15 14 15 66 0 74 12 104 40
104 11 0 20 7 20 15 0 17 -31 20 -47 4 -8 -8 -13 -8 -17 0 -18 29 -26 3 -26
-89z"/>
<path d="M6952 3443 c-19 -7 -42 -58 -42 -93 0 -37 23 -85 45 -94 35 -13 92
-6 110 14 25 28 11 38 -24 17 -16 -9 -36 -17 -44 -17 -22 0 -47 28 -47 51 0
17 8 19 71 19 69 0 71 1 65 23 -3 12 -6 27 -6 34 0 25 -43 53 -79 52 -20 0
-42 -3 -49 -6z m80 -30 c33 -29 22 -43 -32 -43 -54 0 -65 14 -34 44 20 21 43
20 66 -1z"/>
<path d="M2850 3355 c0 -11 12 -15 45 -15 33 0 45 4 45 15 0 11 -12 15 -45 15
-33 0 -45 -4 -45 -15z"/>
<path d="M5760 3270 c0 -13 7 -20 20 -20 13 0 20 7 20 20 0 13 -7 20 -20 20
-13 0 -20 -7 -20 -20z"/>
<path d="M11140 3009 c0 -93 3 -169 8 -169 4 0 120 38 257 83 l250 84 -258 86
-257 85 0 -169z"/>
<path d="M1640 2975 c0 -128 1 -135 20 -135 18 0 20 7 20 74 0 66 3 77 22 90
28 20 33 20 52 0 12 -11 16 -36 16 -90 0 -59 3 -74 15 -74 22 0 22 162 -1 184
-18 18 -56 21 -85 6 -17 -10 -19 -7 -19 35 0 38 -3 45 -20 45 -19 0 -20 -7
-20 -135z"/>
<path d="M2083 3103 c-7 -2 -13 -18 -13 -34 0 -19 -5 -29 -15 -29 -8 0 -15 -7
-15 -15 0 -8 7 -15 15 -15 12 0 15 -16 15 -85 0 -69 3 -85 15 -85 12 0 15 16
15 84 0 71 3 84 18 88 35 9 42 -2 42 -68 0 -81 11 -104 50 -104 34 0 40 15 10
23 -18 5 -20 14 -20 76 0 56 3 71 15 71 8 0 15 7 15 15 0 8 -7 15 -15 15 -8 0
-15 9 -15 20 0 11 -7 20 -15 20 -8 0 -15 -9 -15 -20 0 -16 -7 -20 -35 -20 -28
0 -35 4 -35 19 0 11 9 23 20 26 11 3 20 11 20 16 0 9 -36 11 -57 2z"/>
<path d="M2270 2975 c0 -113 2 -135 15 -135 13 0 15 22 15 135 0 113 -2 135
-15 135 -13 0 -15 -22 -15 -135z"/>
<path d="M2350 3095 c0 -8 7 -15 15 -15 8 0 15 7 15 15 0 8 -7 15 -15 15 -8 0
-15 -7 -15 -15z"/>
<path d="M2620 2975 c0 -109 3 -135 14 -135 10 0 15 20 18 76 3 60 7 79 23 90
22 16 34 17 55 4 11 -6 16 -32 18 -90 3 -60 8 -80 18 -80 21 0 20 148 -2 178
-18 27 -69 30 -96 5 -17 -15 -18 -14 -18 35 0 40 -4 52 -15 52 -13 0 -15 -22
-15 -135z"/>
<path d="M5400 3085 c0 -8 9 -15 20 -15 11 0 20 7 20 15 0 8 -9 15 -20 15 -11
0 -20 -7 -20 -15z"/>
<path d="M5100 2961 c0 -110 2 -131 15 -131 12 0 15 18 15 103 l1 102 38 -100
c21 -55 44 -101 52 -103 9 -1 27 32 54 105 l40 108 3 -107 c2 -87 6 -108 17
-108 12 0 15 22 15 130 l0 130 -24 0 c-21 0 -28 -12 -62 -104 -22 -58 -41
-103 -43 -100 -2 2 -21 48 -41 101 -29 79 -41 99 -58 101 -22 3 -22 1 -22
-127z"/>
<path d="M6140 2960 c0 -109 2 -130 15 -130 13 0 15 21 15 130 0 109 -2 130
-15 130 -13 0 -15 -21 -15 -130z"/>
<path d="M5703 3050 c-3 -11 -12 -20 -19 -20 -18 0 -18 -17 1 -27 10 -6 15
-31 17 -88 l3 -80 33 -3 c35 -4 44 12 12 21 -18 4 -20 14 -20 75 0 62 2 70 21
75 23 6 17 27 -7 27 -8 0 -14 9 -14 20 0 11 -5 20 -11 20 -6 0 -13 -9 -16 -20z"/>
<path d="M1279 3021 c-20 -16 -22 -23 -14 -47 8 -21 22 -31 60 -44 32 -11 51
-23 53 -35 7 -34 -53 -48 -82 -20 -19 19 -36 19 -36 0 0 -38 106 -49 140 -15
36 36 18 74 -43 91 -69 20 -84 39 -45 60 17 9 28 8 55 -6 39 -21 54 -13 28 15
-24 26 -85 27 -116 1z"/>
<path d="M1471 3014 c-15 -19 -21 -41 -21 -74 0 -65 28 -100 80 -100 30 0 43
6 60 28 20 24 20 27 5 30 -9 2 -23 -6 -31 -17 -33 -46 -84 -9 -84 61 0 37 26
78 50 78 6 0 19 -9 30 -20 23 -23 40 -26 40 -7 0 24 -36 47 -73 47 -27 0 -41
-7 -56 -26z"/>
<path d="M1865 3020 c-25 -28 -11 -38 24 -17 36 21 45 21 65 1 29 -28 19 -41
-34 -46 -27 -3 -56 -11 -65 -18 -18 -15 -20 -71 -3 -88 17 -17 83 -15 99 4 11
14 13 14 21 0 5 -9 20 -16 33 -16 28 0 33 15 10 24 -11 4 -15 22 -15 74 0 54
-4 72 -18 85 -27 24 -94 22 -117 -3z m105 -100 c0 -27 -37 -62 -62 -58 -12 2
-26 11 -32 21 -9 15 -7 22 13 38 32 26 81 26 81 -1z"/>
<path d="M2350 2940 c0 -82 3 -100 15 -100 12 0 15 18 15 100 0 82 -3 100 -15
100 -12 0 -15 -18 -15 -100z"/>
<path d="M2453 3018 c-11 -13 -23 -36 -27 -51 -9 -38 10 -104 34 -117 30 -16
85 -12 103 8 21 23 22 42 2 42 -8 0 -15 -5 -15 -10 0 -6 -11 -16 -25 -22 -21
-9 -28 -8 -45 7 -29 26 -28 108 1 128 23 17 55 12 63 -9 7 -18 36 -18 36 0 0
44 -93 61 -127 24z"/>
<path d="M2845 3015 c-20 -19 -25 -34 -25 -73 0 -68 27 -102 81 -102 47 0 79
14 79 35 0 19 -17 19 -36 0 -22 -22 -60 -18 -78 7 -29 41 -21 48 54 48 l70 0
0 30 c0 71 -94 107 -145 55z m95 -15 c32 -32 24 -40 -35 -40 -30 0 -55 5 -55
10 0 15 38 50 55 50 8 0 24 -9 35 -20z"/>
<path d="M3030 2940 c0 -93 1 -100 20 -100 18 0 20 7 20 73 0 75 9 97 42 97
10 0 18 7 18 15 0 20 -29 19 -52 -2 -17 -15 -18 -15 -18 0 0 10 -7 17 -15 17
-12 0 -15 -18 -15 -100z"/>
<path d="M10283 3033 c-27 -4 -33 -9 -33 -29 0 -23 3 -24 60 -24 l60 0 0 30
c0 32 -4 33 -87 23z"/>
<path d="M10450 3010 c0 -30 1 -30 55 -30 54 0 55 0 55 30 0 30 -1 30 -55 30
-54 0 -55 0 -55 -30z"/>
<path d="M10640 3010 c0 -30 1 -30 55 -30 54 0 55 0 55 30 0 30 -1 30 -55 30
-54 0 -55 0 -55 -30z"/>
<path d="M10830 3010 c0 -30 1 -30 55 -30 54 0 55 0 55 30 0 30 -1 30 -55 30
-54 0 -55 0 -55 -30z"/>
<path d="M11020 3010 c0 -30 1 -30 55 -30 54 0 55 0 55 30 0 30 -1 30 -55 30
-54 0 -55 0 -55 -30z"/>
<path d="M5400 2931 c0 -95 1 -101 20 -101 20 0 21 5 18 97 -3 84 -6 98 -20
101 -16 3 -18 -7 -18 -97z"/>
<path d="M5505 3005 c-20 -19 -25 -34 -25 -73 0 -68 27 -102 81 -102 47 0 79
14 79 35 0 19 -17 19 -36 0 -22 -22 -60 -18 -78 7 -29 41 -21 48 54 48 l70 0
0 30 c0 71 -94 107 -145 55z m95 -15 c32 -32 24 -40 -35 -40 -30 0 -55 5 -55
10 0 15 38 50 55 50 8 0 24 -9 35 -20z"/>
<path d="M5815 3005 c-20 -19 -25 -34 -25 -75 0 -66 30 -100 87 -100 44 0 90
27 75 42 -7 7 -18 5 -33 -6 -40 -28 -80 -15 -94 32 -6 21 -4 22 64 22 l71 0 0
29 c0 15 -9 40 -21 55 -28 36 -89 37 -124 1z m95 -15 c31 -31 24 -40 -35 -40
-47 0 -54 2 -48 18 7 21 32 42 50 42 7 0 22 -9 33 -20z"/>
<path d="M6010 2930 c0 -82 3 -100 15 -100 12 0 15 14 15 66 0 74 12 104 40
104 11 0 20 7 20 15 0 17 -31 20 -47 4 -8 -8 -13 -8 -17 0 -18 29 -26 3 -26
-89z"/>
<path d="M6240 2930 c0 -82 3 -100 15 -100 12 0 15 15 15 75 0 68 2 76 24 90
19 13 29 14 45 5 19 -9 21 -20 21 -90 0 -64 3 -80 15 -80 12 0 15 16 15 88 0
55 -4 92 -12 100 -17 17 -74 15 -92 -4 -15 -14 -16 -14 -16 0 0 9 -7 16 -15
16 -12 0 -15 -18 -15 -100z"/>
<path d="M6440 2930 c0 -93 1 -100 20 -100 18 0 20 7 20 74 0 66 3 77 22 90
28 20 33 20 52 0 12 -11 16 -36 16 -90 0 -59 3 -74 15 -74 22 0 22 162 -1 184
-20 20 -63 20 -92 0 -20 -14 -22 -14 -22 0 0 9 -7 16 -15 16 -12 0 -15 -18
-15 -100z"/>
<path d="M6682 3023 c-19 -7 -42 -58 -42 -93 0 -37 23 -85 45 -94 35 -13 92
-6 110 14 25 28 11 38 -24 17 -16 -9 -36 -17 -44 -17 -22 0 -47 28 -47 51 0
17 8 19 71 19 69 0 71 1 65 23 -3 12 -6 27 -6 34 0 25 -43 53 -79 52 -20 0
-42 -3 -49 -6z m80 -30 c33 -29 22 -43 -32 -43 -54 0 -65 14 -34 44 20 21 43
20 66 -1z"/>
<path d="M6860 2930 c0 -82 3 -100 15 -100 12 0 15 14 15 70 0 57 4 74 20 90
46 46 70 18 70 -82 0 -71 2 -78 20 -78 18 0 20 7 20 73 0 91 -14 121 -59 125
-21 2 -40 -3 -52 -14 -17 -16 -19 -16 -19 -1 0 10 -7 17 -15 17 -12 0 -15 -18
-15 -100z"/>
<path d="M9110 3005 c0 -24 3 -25 55 -25 52 0 55 1 55 25 0 24 -3 25 -55 25
-52 0 -55 -1 -55 -25z"/>
<path d="M9300 3005 c0 -24 3 -25 55 -25 52 0 55 1 55 25 0 24 -3 25 -55 25
-52 0 -55 -1 -55 -25z"/>
<path d="M9490 3005 c0 -24 3 -25 55 -25 52 0 55 1 55 25 0 24 -3 25 -55 25
-52 0 -55 -1 -55 -25z"/>
<path d="M9680 3005 c0 -24 3 -25 55 -25 52 0 55 1 55 25 0 24 -3 25 -55 25
-52 0 -55 -1 -55 -25z"/>
<path d="M9870 3005 c0 -24 3 -25 55 -25 52 0 55 1 55 25 0 24 -3 25 -55 25
-52 0 -55 -1 -55 -25z"/>
<path d="M10060 3005 c0 -24 3 -25 55 -25 52 0 55 1 55 25 0 24 -3 25 -55 25
-52 0 -55 -1 -55 -25z"/>
<path d="M13130 2845 c0 -113 2 -135 15 -135 12 0 15 15 15 75 0 68 2 76 24
90 19 13 29 14 45 5 19 -9 21 -20 21 -90 0 -64 3 -80 15 -80 12 0 15 16 15 88
0 55 -4 92 -12 100 -17 17 -74 15 -92 -4 -15 -14 -16 -11 -16 35 0 39 -4 51
-15 51 -13 0 -15 -22 -15 -135z"/>
<path d="M14096 2928 c-31 -107 -56 -203 -56 -210 0 -5 6 -8 13 -8 9 0 26 45
49 132 l34 133 54 -133 c70 -172 76 -172 142 -8 26 66 48 124 48 129 0 5 -7 7
-16 5 -11 -2 -32 -42 -59 -113 -42 -108 -43 -109 -54 -80 -13 33 -74 189 -75
191 -1 1 -15 5 -33 9 -32 6 -32 6 -47 -47z"/>
<path d="M15040 2965 c0 -8 7 -15 15 -15 8 0 15 7 15 15 0 8 -7 15 -15 15 -8
0 -15 -7 -15 -15z"/>
<path d="M11940 2965 c0 -3 23 -62 51 -130 39 -93 56 -125 69 -125 13 0 31 32
70 126 28 69 49 128 46 131 -16 16 -37 -16 -71 -106 -21 -56 -41 -101 -44
-101 -3 0 -24 46 -46 103 -27 67 -47 103 -58 105 -9 2 -17 1 -17 -3z"/>
<path d="M13340 2930 c0 -11 -7 -20 -15 -20 -8 0 -15 -7 -15 -15 0 -8 5 -15
10 -15 6 0 10 -29 10 -66 0 -81 11 -104 50 -104 34 0 40 15 10 23 -18 5 -20
14 -20 76 0 56 3 71 15 71 8 0 15 7 15 15 0 8 -7 15 -15 15 -8 0 -15 9 -15 20
0 11 -7 20 -15 20 -8 0 -15 -9 -15 -20z"/>
<path d="M15340 2935 c0 -9 -7 -18 -15 -21 -17 -7 -21 -34 -5 -34 6 0 10 -30
10 -69 0 -88 5 -101 41 -101 34 0 37 10 9 28 -17 10 -20 23 -20 77 0 58 2 65
20 65 11 0 20 7 20 15 0 8 -9 15 -20 15 -13 0 -20 7 -20 20 0 11 -4 20 -10 20
-5 0 -10 -7 -10 -15z"/>
<path d="M12205 2885 c-20 -19 -25 -34 -25 -75 0 -66 30 -100 87 -100 44 0 90
27 75 42 -7 7 -18 5 -33 -6 -40 -28 -80 -15 -94 32 -6 21 -4 22 64 22 l71 0 0
29 c0 15 -9 40 -21 55 -28 36 -89 37 -124 1z m95 -15 c31 -31 24 -40 -35 -40
-47 0 -54 2 -48 18 7 21 32 42 50 42 7 0 22 -9 33 -20z"/>
<path d="M12400 2810 c0 -82 3 -100 15 -100 12 0 15 14 15 66 0 74 12 104 40
104 11 0 20 7 20 15 0 21 -37 19 -49 -2 -10 -17 -10 -17 -11 0 0 9 -7 17 -15
17 -12 0 -15 -18 -15 -100z"/>
<path d="M12520 2769 c0 -128 2 -140 18 -137 13 2 18 16 22 53 3 31 8 45 13
38 9 -14 65 -17 83 -5 39 25 46 124 13 166 -23 29 -74 36 -98 14 -11 -10 -14
-10 -18 0 -3 6 -11 12 -19 12 -11 0 -14 -26 -14 -141z m115 107 c14 -10 19
-26 19 -64 0 -54 -15 -82 -45 -82 -32 0 -49 28 -49 80 0 39 4 52 22 64 27 19
29 19 53 2z"/>
<path d="M12745 2890 c-25 -28 -11 -38 24 -17 36 21 45 21 65 1 29 -28 19 -41
-34 -46 -27 -3 -56 -11 -65 -18 -18 -15 -20 -71 -3 -88 17 -17 83 -15 99 4 11
14 13 14 21 0 5 -9 20 -16 33 -16 28 0 33 15 10 24 -11 4 -15 22 -15 74 0 54
-4 72 -18 85 -27 24 -94 22 -117 -3z m105 -100 c0 -27 -37 -62 -62 -58 -12 2
-26 11 -32 21 -9 15 -7 22 13 38 32 26 81 26 81 -1z"/>
<path d="M12955 2885 c-20 -19 -25 -34 -25 -73 0 -68 27 -102 81 -102 38 0 79
26 79 50 0 17 -25 11 -43 -10 -20 -24 -36 -25 -63 -6 -14 11 -19 26 -19 66 0
40 5 55 19 66 26 18 32 18 56 -6 20 -20 50 -27 50 -12 0 5 -10 18 -23 30 -32
30 -81 29 -112 -3z"/>
<path d="M13437 2903 c-12 -11 -7 -137 6 -163 16 -31 76 -40 101 -15 14 15 16
15 16 1 0 -9 7 -16 15 -16 12 0 15 18 15 100 0 82 -3 100 -15 100 -12 0 -15
-14 -15 -68 0 -72 -17 -112 -49 -112 -32 0 -41 22 -41 102 0 58 -3 78 -13 78
-8 0 -17 -3 -20 -7z"/>
<path d="M13640 2810 c0 -93 1 -100 20 -100 18 0 20 7 20 74 0 66 3 77 22 90
28 20 33 20 52 0 12 -11 16 -36 16 -90 0 -59 3 -74 15 -74 22 0 22 162 -1 184
-20 20 -63 20 -92 0 -20 -14 -22 -14 -22 0 0 9 -7 16 -15 16 -12 0 -15 -18
-15 -100z"/>
<path d="M13866 2891 c-20 -22 -32 -87 -22 -125 13 -54 68 -73 115 -40 23 17
23 17 16 -17 -4 -19 -13 -37 -19 -41 -16 -11 -50 -10 -63 3 -6 6 -18 9 -27 7
-15 -3 -15 -5 -2 -23 19 -27 97 -28 123 -2 26 25 34 257 9 257 -9 0 -16 -7
-16 -16 0 -14 -2 -14 -22 0 -30 22 -71 20 -92 -3z m84 -19 c31 -25 32 -95 2
-125 -18 -18 -25 -19 -47 -9 -25 12 -29 27 -25 97 1 27 22 55 41 55 4 0 17 -8
29 -18z"/>
<path d="M14413 2888 c-28 -31 -36 -71 -23 -118 12 -46 33 -60 88 -60 35 0 72
22 72 43 0 13 -27 7 -40 -8 -26 -32 -90 -5 -90 38 0 14 11 17 70 17 64 0 70 2
70 20 0 29 -26 76 -45 84 -36 13 -82 6 -102 -16z m91 -14 c31 -30 20 -44 -34
-44 -56 0 -67 17 -28 44 28 20 43 20 62 0z"/>
<path d="M14600 2810 c0 -82 3 -100 15 -100 11 0 15 13 15 54 0 67 14 106 40
113 21 6 28 33 8 33 -6 0 -20 -7 -30 -17 -17 -15 -18 -15 -18 0 0 10 -7 17
-15 17 -12 0 -15 -18 -15 -100z"/>
<path d="M14730 2810 c0 -82 3 -100 15 -100 12 0 15 15 15 73 0 62 3 77 21 93
15 14 24 16 37 8 13 -9 18 -29 20 -93 2 -63 6 -81 17 -81 12 0 15 14 15 59 0
91 23 131 65 115 12 -5 15 -25 15 -90 0 -77 2 -84 20 -84 18 0 20 7 20 78 0
91 -15 122 -59 122 -16 0 -34 -7 -41 -15 -12 -14 -15 -14 -30 0 -19 17 -53 19
-81 5 -13 -7 -19 -7 -19 0 0 5 -7 10 -15 10 -12 0 -15 -18 -15 -100z"/>
<path d="M15040 2810 c0 -82 3 -100 15 -100 12 0 15 18 15 100 0 82 -3 100
-15 100 -12 0 -15 -18 -15 -100z"/>
<path d="M15143 2888 c-28 -31 -36 -71 -23 -118 12 -46 33 -60 88 -60 35 0 72
22 72 43 0 13 -27 7 -40 -8 -26 -32 -90 -5 -90 38 0 14 11 17 70 17 64 0 70 2
70 20 0 29 -26 76 -45 84 -36 13 -82 6 -102 -16z m91 -14 c31 -30 20 -44 -34
-44 -56 0 -67 17 -28 44 28 20 43 20 62 0z"/>
<path d="M15430 2833 c0 -94 15 -123 62 -123 17 0 40 7 50 17 17 15 18 15 18
0 0 -10 7 -17 15 -17 12 0 15 18 15 100 0 82 -3 100 -15 100 -12 0 -15 -14
-15 -70 0 -57 -4 -74 -20 -90 -11 -11 -26 -20 -32 -20 -30 1 -37 18 -40 95 -3
67 -6 80 -20 83 -16 3 -18 -6 -18 -75z"/>
<path d="M15640 2810 c0 -79 3 -100 14 -100 10 0 15 20 18 76 3 60 7 79 23 90
22 16 34 17 55 4 11 -6 16 -32 18 -90 3 -60 8 -80 18 -80 21 0 20 148 -2 178
-18 27 -69 30 -96 5 -17 -15 -18 -15 -18 0 0 10 -7 17 -15 17 -12 0 -15 -18
-15 -100z"/>
<path d="M15860 2883 c-18 -24 -21 -38 -18 -87 3 -42 10 -62 23 -72 25 -19 70
-18 89 2 15 14 16 13 16 -13 0 -16 -5 -34 -12 -41 -17 -17 -65 -15 -75 3 -6 9
-13 11 -23 5 -11 -7 -11 -11 -1 -24 18 -22 68 -30 101 -16 39 16 50 54 50 171
0 80 -3 99 -14 99 -8 0 -18 -5 -21 -10 -4 -7 -12 -7 -25 0 -34 18 -67 11 -90
-17z m90 -13 c41 -41 12 -148 -38 -138 -42 8 -54 117 -16 145 24 17 31 16 54
-7z"/>
<path d="M7070 2850 c0 -11 5 -20 11 -20 7 0 9 -10 5 -25 -4 -14 -2 -25 3 -25
12 0 21 25 21 61 0 22 -5 29 -20 29 -13 0 -20 -7 -20 -20z"/>
<path d="M2310 2675 c0 -8 7 -15 15 -15 8 0 15 7 15 15 0 8 -7 15 -15 15 -8 0
-15 -7 -15 -15z"/>
<path d="M2600 2555 c0 -113 2 -135 15 -135 8 0 15 5 15 12 0 9 3 9 12 0 7 -7
29 -12 50 -12 49 0 70 31 70 100 0 67 -22 100 -67 100 -18 0 -41 -7 -49 -16
-15 -14 -16 -11 -16 35 0 39 -4 51 -15 51 -13 0 -15 -22 -15 -135z m112 28
c13 -11 18 -30 18 -64 0 -51 -18 -79 -50 -79 -47 0 -68 102 -30 140 24 24 38
25 62 3z"/>
<path d="M1630 2550 l0 -130 64 0 c79 0 113 12 128 45 14 31 -3 74 -33 82 -20
6 -20 6 1 20 16 11 20 23 18 51 -4 47 -32 62 -115 62 l-63 0 0 -130z m131 90
c21 -12 25 -40 7 -58 -7 -7 -34 -12 -60 -12 l-48 0 0 40 0 40 41 0 c22 0 49
-5 60 -10z m17 -112 c7 -7 12 -21 12 -33 0 -33 -20 -45 -77 -45 l-53 0 0 45 0
45 53 0 c29 0 58 -5 65 -12z"/>
<path d="M5660 2545 c0 -109 3 -135 14 -135 10 0 15 20 18 76 3 60 7 79 23 90
22 16 34 17 55 4 11 -6 16 -32 18 -90 3 -60 8 -80 18 -80 21 0 20 148 -2 178
-18 27 -69 30 -96 5 -17 -15 -18 -14 -18 35 0 40 -4 52 -15 52 -13 0 -15 -22
-15 -135z"/>
<path d="M5020 2541 c0 -124 1 -131 20 -131 17 0 20 7 20 50 l0 50 54 0 c71 0
106 26 106 79 0 58 -26 75 -121 80 l-79 3 0 -131z m152 82 c43 -39 10 -83 -63
-83 l-49 0 0 50 0 50 47 0 c29 0 53 -6 65 -17z"/>
<path d="M5295 2660 c-7 -12 2 -30 16 -30 5 0 9 9 9 20 0 21 -15 27 -25 10z"/>
<path d="M5370 2650 c0 -13 5 -20 13 -17 6 2 12 10 12 17 0 7 -6 15 -12 18 -8
2 -13 -5 -13 -18z"/>
<path d="M6320 2540 c0 -109 2 -130 15 -130 13 0 15 21 15 130 0 109 -2 130
-15 130 -13 0 -15 -21 -15 -130z"/>
<path d="M2090 2645 c0 -9 -7 -18 -15 -21 -17 -7 -21 -34 -5 -34 6 0 10 -30
10 -69 0 -88 5 -101 41 -101 34 0 37 10 9 28 -17 10 -20 23 -20 77 0 58 2 65
20 65 11 0 20 7 20 15 0 8 -9 15 -20 15 -13 0 -20 7 -20 20 0 11 -4 20 -10 20
-5 0 -10 -7 -10 -15z"/>
<path d="M5880 2630 c0 -11 -7 -20 -15 -20 -8 0 -15 -7 -15 -15 0 -8 5 -15 10
-15 6 0 10 -29 10 -66 0 -81 11 -104 50 -104 34 0 40 15 10 23 -18 5 -20 14
-20 76 0 56 3 71 15 71 8 0 15 7 15 15 0 8 -7 15 -15 15 -8 0 -15 9 -15 20 0
11 -7 20 -15 20 -8 0 -15 -9 -15 -20z"/>
<path d="M1893 2598 c-28 -31 -36 -71 -23 -118 12 -46 33 -60 88 -60 35 0 72
22 72 43 0 13 -27 7 -40 -8 -26 -32 -90 -5 -90 38 0 14 11 17 70 17 64 0 70 2
70 20 0 29 -26 76 -45 84 -36 13 -82 6 -102 -16z m91 -14 c31 -30 20 -44 -34
-44 -56 0 -67 17 -28 44 28 20 43 20 62 0z"/>
<path d="M2180 2520 c0 -93 1 -100 20 -100 18 0 20 7 20 73 0 75 9 97 42 97
10 0 18 7 18 15 0 20 -29 19 -52 -2 -17 -15 -18 -15 -18 0 0 10 -7 17 -15 17
-12 0 -15 -18 -15 -100z"/>
<path d="M2310 2520 c0 -82 3 -100 15 -100 12 0 15 18 15 100 0 82 -3 100 -15
100 -12 0 -15 -18 -15 -100z"/>
<path d="M2422 2613 c-19 -7 -42 -58 -42 -93 0 -37 23 -85 45 -94 35 -13 92
-6 110 14 25 28 11 38 -24 17 -16 -9 -36 -17 -44 -17 -22 0 -47 28 -47 51 0
17 8 19 71 19 69 0 71 1 65 23 -3 12 -6 27 -6 34 0 25 -43 53 -79 52 -20 0
-42 -3 -49 -6z m80 -30 c33 -29 22 -43 -32 -43 -54 0 -65 14 -34 44 20 21 43
20 66 -1z"/>
<path d="M5285 2590 c-25 -28 -11 -38 24 -17 36 21 45 21 65 1 29 -28 19 -41
-34 -46 -27 -3 -56 -11 -65 -18 -18 -15 -20 -71 -3 -88 17 -17 83 -15 99 4 11
14 13 14 21 0 5 -9 20 -16 33 -16 28 0 33 15 10 24 -11 4 -15 22 -15 74 0 54
-4 72 -18 85 -27 24 -94 22 -117 -3z m105 -100 c0 -27 -37 -62 -62 -58 -12 2
-26 11 -32 21 -9 15 -7 22 13 38 32 26 81 26 81 -1z"/>
<path d="M5491 2584 c-15 -19 -21 -41 -21 -74 0 -65 28 -100 80 -100 30 0 43
6 60 28 20 24 20 27 5 30 -9 2 -23 -6 -31 -17 -33 -46 -84 -9 -84 61 0 37 26
78 50 78 6 0 19 -9 30 -20 23 -23 40 -26 40 -7 0 24 -36 47 -73 47 -27 0 -41
-7 -56 -26z"/>
<path d="M5993 2588 c-28 -31 -36 -71 -23 -118 12 -46 33 -60 88 -60 35 0 72
22 72 43 0 13 -27 7 -40 -8 -26 -32 -90 -5 -90 38 0 14 11 17 70 17 64 0 70 2
70 20 0 29 -26 76 -45 84 -36 13 -82 6 -102 -16z m91 -14 c31 -30 20 -44 -34
-44 -56 0 -67 17 -28 44 28 20 43 20 62 0z"/>
<path d="M6180 2510 c0 -93 1 -100 20 -100 18 0 20 7 20 73 0 75 9 97 42 97
10 0 18 7 18 15 0 20 -29 19 -52 -2 -17 -15 -18 -15 -18 0 0 10 -7 17 -15 17
-12 0 -15 -18 -15 -100z"/>
<path d="M6410 2510 c0 -79 3 -100 14 -100 10 0 15 20 18 76 3 60 7 79 23 90
22 16 34 17 55 4 11 -6 16 -32 18 -90 3 -60 8 -80 18 -80 21 0 20 148 -2 178
-18 27 -69 30 -96 5 -17 -15 -18 -15 -18 0 0 10 -7 17 -15 17 -12 0 -15 -18
-15 -100z"/>
<path d="M6620 2510 c0 -79 3 -100 14 -100 10 0 15 20 18 76 3 60 7 79 23 90
22 16 34 17 55 4 11 -6 16 -32 18 -90 3 -60 8 -80 18 -80 21 0 20 148 -2 178
-18 27 -69 30 -96 5 -17 -15 -18 -15 -18 0 0 10 -7 17 -15 17 -12 0 -15 -18
-15 -100z"/>
<path d="M6845 2585 c-20 -19 -25 -34 -25 -75 0 -66 30 -100 87 -100 44 0 90
27 75 42 -7 7 -18 5 -33 -6 -40 -28 -80 -15 -94 32 -6 21 -4 22 64 22 l71 0 0
29 c0 15 -9 40 -21 55 -28 36 -89 37 -124 1z m95 -15 c31 -31 24 -40 -35 -40
-47 0 -54 2 -48 18 7 21 32 42 50 42 7 0 22 -9 33 -20z"/>
<path d="M7040 2510 c0 -82 3 -100 15 -100 12 0 15 15 15 75 0 68 2 76 24 90
19 13 29 14 45 5 19 -9 21 -20 21 -90 0 -64 3 -80 15 -80 12 0 15 16 15 88 0
55 -4 92 -12 100 -17 17 -74 15 -92 -4 -15 -14 -16 -14 -16 0 0 9 -7 16 -15
16 -12 0 -15 -18 -15 -100z"/>
</g>
</svg>
