<?xml version="1.0" encoding="UTF-8"?>
<svg width="2556.8" height="421.59" version="1.1" viewBox="0 0 2556.8 421.59" xml:space="preserve" xmlns="http://www.w3.org/2000/svg" xmlns:cc="http://creativecommons.org/ns#" xmlns:dc="http://purl.org/dc/elements/1.1/" xmlns:rdf="http://www.w3.org/1999/02/22-rdf-syntax-ns#"><metadata><rdf:RDF><cc:Work rdf:about=""><dc:format>image/svg+xml</dc:format><dc:type rdf:resource="http://purl.org/dc/dcmitype/StillImage"/><dc:title/></cc:Work></rdf:RDF></metadata>
<g transform="translate(333.79 -309.7)">
	
	
	
	
	
	
	
	
	
	
	
	<rect x="-329.74" y="423" width="2552.3" height="308.3" ry="0" fill="#d0b459"/><g transform="translate(487.01 -42.297)"><path d="m1588 525.24c141.38 0 148-31.857 148-173.24h-2540c0 141.38 2228.5 154.8 2392 173.24z" fill="#d6eb76"/></g><g transform="translate(583.91 77.224)"><path d="m-900.01 244.13c-65.347 9.264 66.156 157.91 136.85 192.67 181.49-144.15 2327.5-91.567 2336.1-91.567 1.422 0-3.6121 14.7 0.1799 15.328 12.413-25.813 60.608-74.031 63.73-103.76-125.23 24.956-2334.2-41.399-2536.8-12.67z" fill="#cce16b"/></g><g transform="matrix(1.96 0 0 1.96 694.9 -245.11)">
		<path d="m778.4 341.82 0.77442-34.921c-643.44 3.7946-1079.8-35.846-1297.5-9.4162l-2.9321 92.225c137.15-69.336 1196.5-47.375 1299.6-47.888z" fill="#d0d75b"/>
	</g>
	<g transform="matrix(1.96 0 0 1.96 697.91 -205.91)">
		<path d="m-522.8 311.56c-0.0967 42.87-0.0158 121.54-0.0158 162.54 187.03-251.23 594.41-101.64 1298.5-120.86l1.0084-46.68c-151.79-3.691-1128-15.413-1299.5 5.0014z" fill="#d8c34a"/>
	</g>
	
	
	
	
	
	
	
	
	
	
	<g transform="matrix(1.96 0 0 1.96 307.78 -183.58)">
		<circle cx="100.5" cy="303.78" r="3.717" fill="#d6eb76"/>
	</g>
	<g transform="matrix(1.96 0 0 1.96 282.89 -208.94)">
		<circle cx="51.008" cy="317.47" r="3.717" fill="#cce16b"/>
	</g>
	<g transform="matrix(1.96 0 0 1.96 404.89 -221.76)">
		<circle cx="146.82" cy="324.14" r="3.717" fill="#cce16b"/>
	</g>
	<g transform="matrix(1.96 0 0 1.96 689.17 -218.77)">
		<circle cx="80.901" cy="321.19" r="3.717" fill="#cce16b"/>
	</g>
	<g transform="matrix(1.96 0 0 1.96 697.91 -205.91)">
		<circle cx="197.5" cy="327.85" r="3.717" fill="#d6eb76"/>
	</g>
	<g transform="matrix(1.96 0 0 1.96 537.2 -174.55)">
		<circle cx="177.16" cy="311.22" r="3.717" fill="#d6eb76"/>
	</g>
	<g transform="matrix(1.96 0 0 1.96 821.14 -176.98)">
		<circle cx="263.16" cy="321.19" r="3.717" fill="#d6eb76"/>
	</g>
	<g transform="matrix(1.96 0 0 1.96 697.91 -205.91)">
		<circle cx="239.33" cy="327.85" r="3.717" fill="#cce16b"/>
	</g>
	<g transform="matrix(1.96 0 0 1.96 665.56 -187.11)">
		<circle cx="291.72" cy="327.85" r="3.717" fill="#cce16b"/>
	</g>
	<g transform="matrix(1.96 0 0 1.96 -112.38 -271.99)">
		<circle cx="355.03" cy="338.2" r="3.717" fill="#d6eb76"/>
	</g>
	<g transform="matrix(1.96 0 0 1.96 697.91 -205.91)">
		<circle cx="404.74" cy="336.5" r="3.717" fill="#cce16b"/>
	</g>
	<g transform="matrix(1.96 0 0 1.96 752.48 -214.86)">
		<circle cx="435" cy="341.92" r="3.717" fill="#d6eb76"/>
	</g>
	
	
	
	
	
</g>















</svg>
