<svg width="965" height="338" fill-rule="evenodd" stroke-linejoin="round" stroke-width="28.2" preserveAspectRatio="xMidYMid" version="1.2" viewBox="0 0 965 338" xml:space="preserve" xmlns="http://www.w3.org/2000/svg" xmlns:ooo="http://xml.openoffice.org/svg/export">
<g transform="translate(-526,-5191)">
  <g transform="matrix(.0358 0 0 .0358 507 5005)">
    <g>
      <g>
      <g>
        <rect x="17602" y="9038" width="8601" height="5601" fill="none"/>
        <path d="m21902 14638h-4300v-5600h8600v5600z" fill="#fff"/>
      </g>
      </g>
      <g>
      <g>
        <rect x="526" y="1e4" width="5611" height="3152" fill="none"/>
        <path d="m3330 10103c1547 0 2730 650 2730 1500s-1183 1500-2730 1500-2729-650-2729-1500 1182-1500 2729-1500z" fill="#fff"/>
        <path d="m3330 10103c1547 0 2730 650 2730 1500s-1183 1500-2730 1500-2729-650-2729-1500 1182-1500 2729-1500z" fill="none" stroke="#808080" stroke-linejoin="round" stroke-width="150"/>
        <text><tspan font-family="'Liberation Sans', sans-serif" font-size="635px" font-weight="400"><tspan x="2029" y="11113"><tspan fill="#000000">Landwirt-</tspan></tspan><tspan x="1728" y="11824"><tspan fill="#000000">schaftlicher</tspan></tspan><tspan x="2327" y="12535"><tspan fill="#000000">Betrieb</tspan></tspan></tspan></text>
      </g>
      </g>
      <g>
      <g>
        <rect x="528" y="5761" width="5611" height="3153" fill="none"/>
        <path d="m3332 5836c1547 0 2730 650 2730 1500s-1183 1500-2730 1500-2729-650-2729-1500 1182-1500 2729-1500z" fill="#fff"/>
        <path d="m3332 5836c1547 0 2730 650 2730 1500s-1183 1500-2730 1500-2729-650-2729-1500 1182-1500 2729-1500z" fill="none" stroke="#808080" stroke-linejoin="round" stroke-width="150"/>
        <text font-family="'Liberation Sans', sans-serif" font-size="635px" font-weight="400"><tspan><tspan x="1853" y="6846"><tspan fill="#000000">Hofnutzer-</tspan></tspan><tspan x="2541" y="7557"><tspan fill="#000000">Innen</tspan></tspan></tspan><tspan><tspan x="2797" y="8268"><tspan fill="#000000">e.V.</tspan></tspan></tspan></text>
      </g>
      </g>
      <g>
      <g>
        <rect x="7250" y="5761" width="5611" height="3153" fill="none"/>
        <path d="m10054 5836c1547 0 2730 650 2730 1500s-1183 1500-2730 1500-2729-650-2729-1500 1182-1500 2729-1500z" fill="#fff"/>
        <path d="m10054 5836c1547 0 2730 650 2730 1500s-1183 1500-2730 1500-2729-650-2729-1500 1182-1500 2729-1500z" fill="none" stroke="#808080" stroke-linejoin="round" stroke-width="150"/>
        <text><tspan font-family="'Liberation Sans', sans-serif" font-size="635px" font-weight="400"><tspan x="8734" y="7201"><tspan fill="#000000">Hofbesitz</tspan></tspan><tspan x="9138" y="7912"><tspan fill="#000000">GmbH</tspan></tspan></tspan></text>
      </g>
      </g>
      <g>
      <g>
        <rect x="13921" y="5737" width="6262" height="3153" fill="none"/>
        <path d="m17051 5812c1732 0 3055 650 3055 1500s-1323 1500-3055 1500-3055-650-3055-1500 1323-1500 3055-1500z" fill="#fff"/>
        <path d="m17051 5812c1732 0 3055 650 3055 1500s-1323 1500-3055 1500-3055-650-3055-1500 1323-1500 3055-1500z" fill="none" stroke="#808080" stroke-linejoin="round" stroke-width="150"/>
        <text font-family="'Liberation Sans', sans-serif" font-size="635px" font-weight="400"><tspan><tspan x="15079" y="7177"><tspan fill="#000000">Ackersyndikat</tspan></tspan></tspan><tspan><tspan x="16251" y="7888"><tspan fill="#000000">g.e.V.</tspan></tspan></tspan></text>
      </g>
      </g>
      <g>
      <g>
        <rect x="3032" y="8836" width="602" height="1318" fill="none"/>
        <path d="m3332 10103 1-407" fill="none" stroke="#808080" stroke-linejoin="round" stroke-width="100"/>
        <path d="m3334 8836-301 900h600z" fill="#808080"/>
      </g>
      </g>
      <g>
      <g>
        <g>
        <rect x="16040" y="9673" width="4388" height="602" fill="none"/>
        <path d="m16090 9972 3477 2" fill="none" stroke="#808080" stroke-linejoin="round" stroke-width="100"/>
        <path d="m20427 9974-900-300v600z" fill="#808080"/>
        </g>
      </g>
      <g>
        <g>
        <rect x="16015" y="11297" width="4388" height="602" fill="none"/>
        <path d="m16065 11598 3477-1" fill="none" stroke="#000" stroke-linejoin="round" stroke-width="100"/>
        <path d="m20402 11597-900-300v600z"/>
        </g>
      </g>
      <g>
        <g>
        <rect x="20609" y="9614" width="5405" height="3807" fill="none"/>
        <text font-family="'Liberation Sans', sans-serif" font-size="635px" font-weight="400"><tspan><tspan x="20859" y="10315"><tspan fill="#000000">Ist Mitglied</tspan></tspan></tspan><tspan><tspan x="20859" y="11737"><tspan fill="#000000">Ist Gesellschafter</tspan></tspan></tspan><tspan><tspan x="20859" y="13159"><tspan fill="#000000">Verpachtet / Vermietet</tspan></tspan></tspan></text>
        </g>
      </g>
      <g>
        <g>
        <rect x="16015" y="12698" width="4388" height="602" fill="none"/>
        <path d="m16065 12999h197" fill="none" stroke="#72bf44" stroke-linejoin="round" stroke-width="100"/>
        <path d="m16389 12999h197" fill="none" stroke="#72bf44" stroke-linejoin="round" stroke-width="100"/>
        <path d="m16713 12999h197" fill="none" stroke="#72bf44" stroke-linejoin="round" stroke-width="100"/>
        <path d="m17037 12999h197" fill="none" stroke="#72bf44" stroke-linejoin="round" stroke-width="100"/>
        <path d="m17361 12999h197" fill="none" stroke="#72bf44" stroke-linejoin="round" stroke-width="100"/>
        <path d="m17685 12999h197" fill="none" stroke="#72bf44" stroke-linejoin="round" stroke-width="100"/>
        <path d="m18009 12999h197" fill="none" stroke="#72bf44" stroke-linejoin="round" stroke-width="100"/>
        <path d="m18333 12998h197" fill="none" stroke="#72bf44" stroke-linejoin="round" stroke-width="100"/>
        <path d="m18657 12998h197" fill="none" stroke="#72bf44" stroke-linejoin="round" stroke-width="100"/>
        <path d="m18981 12998h197" fill="none" stroke="#72bf44" stroke-linejoin="round" stroke-width="100"/>
        <path d="m19305 12998h197" fill="none" stroke="#72bf44" stroke-linejoin="round" stroke-width="100"/>
        <path d="m20402 12998-900-300v600z" fill="#72bf44"/>
        </g>
      </g>
      </g>
      <g>
      <g>
        <rect x="5214" y="5191" width="9677" height="1135" fill="none"/>
        <path d="m5264 6275c0-1299 6980-1262 9052-504" fill="none" stroke="#808080" stroke-linejoin="round" stroke-width="100"/>
        <path d="m14890 6251-512-799-377 468z" fill="#808080"/>
      </g>
      </g>
      <g>
      <g>
        <rect x="6013" y="7036" width="1314" height="601" fill="none"/>
        <path d="m6063 7336h403" fill="none" stroke="#000" stroke-linejoin="round" stroke-width="100"/>
        <path d="m7326 7336-900-300v600z"/>
      </g>
      </g>
      <g>
      <g>
        <rect x="12785" y="7018" width="1262" height="602" fill="none"/>
        <path d="m13996 7312-351 7" fill="none" stroke="#000" stroke-linejoin="round" stroke-width="100"/>
        <path d="m12785 7336 906 282-12-600z"/>
      </g>
      </g>
      <g>
      <g>
        <rect x="6512" y="10123" width="6168" height="3153" fill="none"/>
        <path d="m9595 10198c1705 0 3008 650 3008 1500s-1303 1500-3008 1500-3008-650-3008-1500 1303-1500 3008-1500z" fill="#fff"/>
        <path d="m9595 10198c1705 0 3008 650 3008 1500s-1303 1500-3008 1500-3008-650-3008-1500 1303-1500 3008-1500z" fill="none" stroke="#808080" stroke-linejoin="round" stroke-width="150"/>
        <text><tspan font-family="'Liberation Sans', sans-serif" font-size="635px" font-weight="400"><tspan x="7904" y="11208"><tspan fill="#000000">Evtl. andere </tspan></tspan><tspan x="7834" y="11919"><tspan fill="#000000">MieterInnen, </tspan></tspan><tspan x="7711" y="12630"><tspan fill="#000000">PächterInnen</tspan></tspan></tspan></text>
      </g>
      </g>
      <g>
      <g>
        <rect x="5264" y="8397" width="2255" height="2291" fill="none"/>
        <path d="m7468 10637-1601-1627" fill="none" stroke="#808080" stroke-linejoin="round" stroke-width="100"/>
        <path d="m5264 8397 417 852 428-421z" fill="#808080"/>
      </g>
      </g>
      <g>
      <g>
        <rect x="5264" y="8397" width="11838" height="855" fill="none"/>
        <path d="m17051 8812c0 450-8678 593-11142-33" fill="none" stroke="#808080" stroke-linejoin="round" stroke-width="100"/>
        <path d="m5264 8397 632 708 298-521z" fill="#808080"/>
      </g>
      </g>
      <g>
      <g>
        <rect x="21220" y="5691" width="6263" height="3152" fill="none"/>
        <path d="m24351 5766c1732 0 3055 650 3055 1500s-1323 1500-3055 1500-3055-650-3055-1500 1323-1500 3055-1500z" fill="#fff"/>
        <path d="m24351 5766c1732 0 3055 650 3055 1500s-1323 1500-3055 1500-3055-650-3055-1500 1323-1500 3055-1500z" fill="none" stroke="#808080" stroke-linejoin="round" stroke-width="150"/>
        <text><tspan font-family="'Liberation Sans', sans-serif" font-size="635px" font-weight="400"><tspan x="23367" y="6776"><tspan fill="#000000">andere </tspan></tspan><tspan x="22800" y="7487"><tspan fill="#000000">Projekte  &amp; </tspan></tspan><tspan x="23136" y="8198"><tspan fill="#000000">Förderer</tspan></tspan></tspan></text>
      </g>
      </g>
      <g>
      <g>
        <rect x="20106" y="6977" width="1241" height="602" fill="none"/>
        <path d="m21296 7266-331 13" fill="none" stroke="#808080" stroke-linejoin="round" stroke-width="100"/>
        <path d="m20106 7312 911 265-23-600z" fill="#808080"/>
      </g>
      </g>
      <g>
      <g>
        <rect x="9595" y="8786" width="574" height="1413" fill="none"/>
        <path d="m10056 8836-63 187" fill="none" stroke="#72bf44" stroke-linejoin="round" stroke-width="100"/>
        <path d="m9952 9143-63 186" fill="none" stroke="#72bf44" stroke-linejoin="round" stroke-width="100"/>
        <path d="m9595 10198 573-756-569-193z" fill="#72bf44"/>
      </g>
      </g>
      <g>
      <g>
        <rect x="5262" y="8347" width="2914" height="2196" fill="none"/>
        <path d="m8125 8397-158 118" fill="none" stroke="#72bf44" stroke-linejoin="round" stroke-width="100"/>
        <path d="m7866 8591-158 118" fill="none" stroke="#72bf44" stroke-linejoin="round" stroke-width="100"/>
        <path d="m7606 8786-157 118" fill="none" stroke="#72bf44" stroke-linejoin="round" stroke-width="100"/>
        <path d="m7347 8980-158 118" fill="none" stroke="#72bf44" stroke-linejoin="round" stroke-width="100"/>
        <path d="m7088 9174-158 118" fill="none" stroke="#72bf44" stroke-linejoin="round" stroke-width="100"/>
        <path d="m6829 9368-158 118" fill="none" stroke="#72bf44" stroke-linejoin="round" stroke-width="100"/>
        <path d="m6569 9563-157 118" fill="none" stroke="#72bf44" stroke-linejoin="round" stroke-width="100"/>
        <path d="m6310 9757-158 118" fill="none" stroke="#72bf44" stroke-linejoin="round" stroke-width="100"/>
        <path d="m6051 9951-101 75" fill="none" stroke="#72bf44" stroke-linejoin="round" stroke-width="100"/>
        <path d="m5262 10542 900-300-360-480z" fill="#72bf44"/>
      </g>
      </g>
    </g>
  </g>
</g>
</svg>
